<mxfile host="app.diagrams.net" modified="2021-05-31T06:53:24.761Z" agent="5.0 (Windows NT 10.0; Win64; x64) AppleWebKit/537.36 (KHTML, like Gecko) Chrome/91.0.4472.77 Safari/537.36 Edg/91.0.864.37" etag="GcW7ndb0gtaRaEJx5sF0" version="14.7.3" type="github">
  <diagram id="K7WP6P9cJXZIgH97iTgB" name="Page-1">
    <mxGraphModel dx="1718" dy="935" grid="1" gridSize="10" guides="1" tooltips="1" connect="1" arrows="1" fold="1" page="1" pageScale="1" pageWidth="2339" pageHeight="3300" math="0" shadow="0">
      <root>
        <mxCell id="0" />
        <mxCell id="1" parent="0" />
        <mxCell id="hd1mkYOsox17n5HaAeX6-1" value="main" style="shape=umlLifeline;perimeter=lifelinePerimeter;whiteSpace=wrap;html=1;container=1;collapsible=0;recursiveResize=0;outlineConnect=0;" vertex="1" parent="1">
          <mxGeometry x="80" y="60" width="100" height="490" as="geometry" />
        </mxCell>
        <mxCell id="hd1mkYOsox17n5HaAeX6-2" value="fable_process.cc" style="shape=umlLifeline;perimeter=lifelinePerimeter;whiteSpace=wrap;html=1;container=1;collapsible=0;recursiveResize=0;outlineConnect=0;" vertex="1" parent="1">
          <mxGeometry x="210" y="60" width="100" height="300" as="geometry" />
        </mxCell>
        <mxCell id="hd1mkYOsox17n5HaAeX6-4" value="" style="html=1;points=[];perimeter=orthogonalPerimeter;" vertex="1" parent="1">
          <mxGeometry x="125" y="130" width="10" height="330" as="geometry" />
        </mxCell>
        <mxCell id="hd1mkYOsox17n5HaAeX6-5" value="" style="html=1;points=[];perimeter=orthogonalPerimeter;" vertex="1" parent="1">
          <mxGeometry x="255" y="140" width="10" height="80" as="geometry" />
        </mxCell>
        <mxCell id="hd1mkYOsox17n5HaAeX6-6" value="" style="endArrow=classic;html=1;" edge="1" parent="1">
          <mxGeometry width="50" height="50" relative="1" as="geometry">
            <mxPoint x="136" y="160" as="sourcePoint" />
            <mxPoint x="255.50000000000023" y="160" as="targetPoint" />
            <Array as="points">
              <mxPoint x="176" y="160" />
            </Array>
          </mxGeometry>
        </mxCell>
        <mxCell id="hd1mkYOsox17n5HaAeX6-11" value="load_routine()" style="edgeLabel;html=1;align=center;verticalAlign=middle;resizable=0;points=[];" vertex="1" connectable="0" parent="hd1mkYOsox17n5HaAeX6-6">
          <mxGeometry x="0.0377" relative="1" as="geometry">
            <mxPoint as="offset" />
          </mxGeometry>
        </mxCell>
        <mxCell id="hd1mkYOsox17n5HaAeX6-17" value="" style="endArrow=classic;html=1;" edge="1" parent="1">
          <mxGeometry width="50" height="50" relative="1" as="geometry">
            <mxPoint x="255" y="40" as="sourcePoint" />
            <mxPoint x="335" y="40" as="targetPoint" />
          </mxGeometry>
        </mxCell>
        <mxCell id="hd1mkYOsox17n5HaAeX6-18" value="" style="endArrow=classic;html=1;" edge="1" parent="1">
          <mxGeometry width="50" height="50" relative="1" as="geometry">
            <mxPoint x="265.0000000000002" y="173.66000000000008" as="sourcePoint" />
            <mxPoint x="390" y="174" as="targetPoint" />
          </mxGeometry>
        </mxCell>
        <mxCell id="hd1mkYOsox17n5HaAeX6-19" value="invoke_routine()" style="edgeLabel;html=1;align=center;verticalAlign=middle;resizable=0;points=[];" vertex="1" connectable="0" parent="hd1mkYOsox17n5HaAeX6-18">
          <mxGeometry x="-0.2871" y="1" relative="1" as="geometry">
            <mxPoint x="11" as="offset" />
          </mxGeometry>
        </mxCell>
        <mxCell id="hd1mkYOsox17n5HaAeX6-21" value="RpcRoutine" style="shape=umlLifeline;perimeter=lifelinePerimeter;whiteSpace=wrap;html=1;container=1;collapsible=0;recursiveResize=0;outlineConnect=0;" vertex="1" parent="1">
          <mxGeometry x="350" y="60" width="100" height="300" as="geometry" />
        </mxCell>
        <mxCell id="hd1mkYOsox17n5HaAeX6-22" value="RpcServer" style="shape=umlLifeline;perimeter=lifelinePerimeter;whiteSpace=wrap;html=1;container=1;collapsible=0;recursiveResize=0;outlineConnect=0;" vertex="1" parent="1">
          <mxGeometry x="480" y="60" width="100" height="1020" as="geometry" />
        </mxCell>
        <mxCell id="hd1mkYOsox17n5HaAeX6-26" style="edgeStyle=orthogonalEdgeStyle;rounded=0;orthogonalLoop=1;jettySize=auto;html=1;" edge="1" parent="1" source="hd1mkYOsox17n5HaAeX6-24">
          <mxGeometry relative="1" as="geometry">
            <mxPoint x="520" y="190" as="targetPoint" />
          </mxGeometry>
        </mxCell>
        <mxCell id="hd1mkYOsox17n5HaAeX6-28" value="invoke()&lt;br&gt;&lt;span style=&quot;font-size: 11px&quot;&gt;RpcServer()&lt;/span&gt;" style="edgeLabel;html=1;align=center;verticalAlign=middle;resizable=0;points=[];" vertex="1" connectable="0" parent="hd1mkYOsox17n5HaAeX6-26">
          <mxGeometry x="-0.1961" y="1" relative="1" as="geometry">
            <mxPoint x="1" y="-1" as="offset" />
          </mxGeometry>
        </mxCell>
        <mxCell id="hd1mkYOsox17n5HaAeX6-24" value="" style="html=1;points=[];perimeter=orthogonalPerimeter;" vertex="1" parent="1">
          <mxGeometry x="395" y="150" width="10" height="80" as="geometry" />
        </mxCell>
        <mxCell id="hd1mkYOsox17n5HaAeX6-25" value="" style="html=1;points=[];perimeter=orthogonalPerimeter;" vertex="1" parent="1">
          <mxGeometry x="525" y="160" width="10" height="170" as="geometry" />
        </mxCell>
        <mxCell id="hd1mkYOsox17n5HaAeX6-31" value="TcpServer" style="shape=umlLifeline;perimeter=lifelinePerimeter;whiteSpace=wrap;html=1;container=1;collapsible=0;recursiveResize=0;outlineConnect=0;" vertex="1" parent="1">
          <mxGeometry x="619.86" y="60" width="100" height="740" as="geometry" />
        </mxCell>
        <mxCell id="hd1mkYOsox17n5HaAeX6-42" style="edgeStyle=orthogonalEdgeStyle;rounded=0;orthogonalLoop=1;jettySize=auto;html=1;" edge="1" parent="1">
          <mxGeometry relative="1" as="geometry">
            <mxPoint x="674.8600000000001" y="232" as="sourcePoint" />
            <mxPoint x="799.5" y="232" as="targetPoint" />
          </mxGeometry>
        </mxCell>
        <mxCell id="hd1mkYOsox17n5HaAeX6-43" value="TcpAcceptor()" style="edgeLabel;html=1;align=center;verticalAlign=middle;resizable=0;points=[];" vertex="1" connectable="0" parent="hd1mkYOsox17n5HaAeX6-42">
          <mxGeometry x="-0.3188" y="-2" relative="1" as="geometry">
            <mxPoint x="12" y="-2" as="offset" />
          </mxGeometry>
        </mxCell>
        <mxCell id="hd1mkYOsox17n5HaAeX6-32" value="" style="html=1;points=[];perimeter=orthogonalPerimeter;" vertex="1" parent="1">
          <mxGeometry x="664.86" y="170" width="10" height="80" as="geometry" />
        </mxCell>
        <mxCell id="hd1mkYOsox17n5HaAeX6-37" style="edgeStyle=orthogonalEdgeStyle;rounded=0;orthogonalLoop=1;jettySize=auto;html=1;" edge="1" parent="1" source="hd1mkYOsox17n5HaAeX6-35">
          <mxGeometry relative="1" as="geometry">
            <mxPoint x="669" y="210" as="targetPoint" />
          </mxGeometry>
        </mxCell>
        <mxCell id="hd1mkYOsox17n5HaAeX6-38" value="TcpServer()" style="edgeLabel;html=1;align=center;verticalAlign=middle;resizable=0;points=[];" vertex="1" connectable="0" parent="hd1mkYOsox17n5HaAeX6-37">
          <mxGeometry x="-0.192" y="1" relative="1" as="geometry">
            <mxPoint as="offset" />
          </mxGeometry>
        </mxCell>
        <mxCell id="hd1mkYOsox17n5HaAeX6-35" value="" style="html=1;points=[];perimeter=orthogonalPerimeter;" vertex="1" parent="1">
          <mxGeometry x="535" y="180" width="10" height="60" as="geometry" />
        </mxCell>
        <mxCell id="hd1mkYOsox17n5HaAeX6-36" value="" style="edgeStyle=orthogonalEdgeStyle;html=1;align=left;spacingLeft=2;endArrow=block;rounded=0;entryX=1;entryY=0;" edge="1" target="hd1mkYOsox17n5HaAeX6-35" parent="1" source="hd1mkYOsox17n5HaAeX6-22">
          <mxGeometry relative="1" as="geometry">
            <mxPoint x="540" y="160" as="sourcePoint" />
            <Array as="points">
              <mxPoint x="590" y="160" />
              <mxPoint x="590" y="180" />
            </Array>
          </mxGeometry>
        </mxCell>
        <mxCell id="hd1mkYOsox17n5HaAeX6-39" value="SetupTcpServer()" style="edgeLabel;html=1;align=center;verticalAlign=middle;resizable=0;points=[];" vertex="1" connectable="0" parent="hd1mkYOsox17n5HaAeX6-36">
          <mxGeometry x="-0.2632" y="-3" relative="1" as="geometry">
            <mxPoint x="24" y="-23" as="offset" />
          </mxGeometry>
        </mxCell>
        <mxCell id="hd1mkYOsox17n5HaAeX6-40" value="TcpAcceptor" style="shape=umlLifeline;perimeter=lifelinePerimeter;whiteSpace=wrap;html=1;container=1;collapsible=0;recursiveResize=0;outlineConnect=0;" vertex="1" parent="1">
          <mxGeometry x="750" y="60" width="100" height="620" as="geometry" />
        </mxCell>
        <mxCell id="hd1mkYOsox17n5HaAeX6-41" value="" style="html=1;points=[];perimeter=orthogonalPerimeter;" vertex="1" parent="hd1mkYOsox17n5HaAeX6-40">
          <mxGeometry x="45" y="140" width="10" height="80" as="geometry" />
        </mxCell>
        <mxCell id="hd1mkYOsox17n5HaAeX6-45" value="" style="html=1;points=[];perimeter=orthogonalPerimeter;" vertex="1" parent="hd1mkYOsox17n5HaAeX6-40">
          <mxGeometry x="55" y="160" width="10" height="60" as="geometry" />
        </mxCell>
        <mxCell id="hd1mkYOsox17n5HaAeX6-46" value="listen()" style="edgeStyle=orthogonalEdgeStyle;html=1;align=left;spacingLeft=2;endArrow=block;rounded=0;entryX=1;entryY=0;exitX=0.852;exitY=-0.028;exitDx=0;exitDy=0;exitPerimeter=0;" edge="1" target="hd1mkYOsox17n5HaAeX6-45" parent="hd1mkYOsox17n5HaAeX6-40" source="hd1mkYOsox17n5HaAeX6-41">
          <mxGeometry relative="1" as="geometry">
            <mxPoint x="60" y="140" as="sourcePoint" />
            <Array as="points">
              <mxPoint x="54" y="140" />
              <mxPoint x="90" y="140" />
              <mxPoint x="90" y="160" />
            </Array>
          </mxGeometry>
        </mxCell>
        <mxCell id="hd1mkYOsox17n5HaAeX6-44" value="主线程的EventLoop" style="shape=umlLifeline;perimeter=lifelinePerimeter;whiteSpace=wrap;html=1;container=1;collapsible=0;recursiveResize=0;outlineConnect=0;" vertex="1" parent="1">
          <mxGeometry x="1110" y="60" width="100" height="830" as="geometry" />
        </mxCell>
        <mxCell id="hd1mkYOsox17n5HaAeX6-47" style="edgeStyle=orthogonalEdgeStyle;rounded=0;orthogonalLoop=1;jettySize=auto;html=1;" edge="1" parent="1" source="hd1mkYOsox17n5HaAeX6-45">
          <mxGeometry relative="1" as="geometry">
            <mxPoint x="1150" y="250" as="targetPoint" />
          </mxGeometry>
        </mxCell>
        <mxCell id="hd1mkYOsox17n5HaAeX6-48" value="EnableRead()" style="edgeLabel;html=1;align=center;verticalAlign=middle;resizable=0;points=[];" vertex="1" connectable="0" parent="hd1mkYOsox17n5HaAeX6-47">
          <mxGeometry x="-0.171" y="1" relative="1" as="geometry">
            <mxPoint as="offset" />
          </mxGeometry>
        </mxCell>
        <mxCell id="hd1mkYOsox17n5HaAeX6-49" value="" style="html=1;points=[];perimeter=orthogonalPerimeter;" vertex="1" parent="1">
          <mxGeometry x="1155" y="220" width="10" height="70" as="geometry" />
        </mxCell>
        <mxCell id="hd1mkYOsox17n5HaAeX6-50" value="EventThreadPool" style="shape=umlLifeline;perimeter=lifelinePerimeter;whiteSpace=wrap;html=1;container=1;collapsible=0;recursiveResize=0;outlineConnect=0;" vertex="1" parent="1">
          <mxGeometry x="870" y="60" width="100" height="300" as="geometry" />
        </mxCell>
        <mxCell id="hd1mkYOsox17n5HaAeX6-54" value="" style="html=1;points=[];perimeter=orthogonalPerimeter;" vertex="1" parent="hd1mkYOsox17n5HaAeX6-50">
          <mxGeometry x="45" y="210" width="10" height="80" as="geometry" />
        </mxCell>
        <mxCell id="hd1mkYOsox17n5HaAeX6-53" value="" style="endArrow=classic;html=1;exitX=1.231;exitY=0.782;exitDx=0;exitDy=0;exitPerimeter=0;" edge="1" parent="1" source="hd1mkYOsox17n5HaAeX6-25" target="hd1mkYOsox17n5HaAeX6-50">
          <mxGeometry width="50" height="50" relative="1" as="geometry">
            <mxPoint x="590" y="420" as="sourcePoint" />
            <mxPoint x="640" y="370" as="targetPoint" />
          </mxGeometry>
        </mxCell>
        <mxCell id="hd1mkYOsox17n5HaAeX6-55" value="EventThreadPool()" style="edgeLabel;html=1;align=center;verticalAlign=middle;resizable=0;points=[];" vertex="1" connectable="0" parent="hd1mkYOsox17n5HaAeX6-53">
          <mxGeometry x="-0.0833" y="-1" relative="1" as="geometry">
            <mxPoint x="18" y="-4" as="offset" />
          </mxGeometry>
        </mxCell>
        <mxCell id="hd1mkYOsox17n5HaAeX6-58" value="" style="endArrow=classic;html=1;" edge="1" parent="1">
          <mxGeometry width="50" height="50" relative="1" as="geometry">
            <mxPoint x="135.00000000000023" y="390" as="sourcePoint" />
            <mxPoint x="520" y="390" as="targetPoint" />
          </mxGeometry>
        </mxCell>
        <mxCell id="hd1mkYOsox17n5HaAeX6-59" value="start()" style="edgeLabel;html=1;align=center;verticalAlign=middle;resizable=0;points=[];" vertex="1" connectable="0" parent="hd1mkYOsox17n5HaAeX6-58">
          <mxGeometry x="-0.1353" y="-1" relative="1" as="geometry">
            <mxPoint as="offset" />
          </mxGeometry>
        </mxCell>
        <mxCell id="hd1mkYOsox17n5HaAeX6-60" value="" style="html=1;points=[];perimeter=orthogonalPerimeter;" vertex="1" parent="1">
          <mxGeometry x="525" y="370" width="10" height="140" as="geometry" />
        </mxCell>
        <mxCell id="hd1mkYOsox17n5HaAeX6-63" value="io线程的EventLoop" style="shape=umlLifeline;perimeter=lifelinePerimeter;whiteSpace=wrap;html=1;container=1;collapsible=0;recursiveResize=0;outlineConnect=0;" vertex="1" parent="1">
          <mxGeometry x="1260" y="60" width="100" height="810" as="geometry" />
        </mxCell>
        <mxCell id="hd1mkYOsox17n5HaAeX6-64" value="" style="endArrow=classic;html=1;entryX=-0.193;entryY=0.83;entryDx=0;entryDy=0;entryPerimeter=0;exitX=1.162;exitY=0.843;exitDx=0;exitDy=0;exitPerimeter=0;" edge="1" parent="1" source="hd1mkYOsox17n5HaAeX6-60" target="hd1mkYOsox17n5HaAeX6-77">
          <mxGeometry width="50" height="50" relative="1" as="geometry">
            <mxPoint x="535" y="480" as="sourcePoint" />
            <mxPoint x="1305" y="440" as="targetPoint" />
            <Array as="points">
              <mxPoint x="650" y="488" />
            </Array>
          </mxGeometry>
        </mxCell>
        <mxCell id="hd1mkYOsox17n5HaAeX6-66" value="start()" style="edgeLabel;html=1;align=center;verticalAlign=middle;resizable=0;points=[];" vertex="1" connectable="0" parent="hd1mkYOsox17n5HaAeX6-64">
          <mxGeometry x="-0.2273" y="-3" relative="1" as="geometry">
            <mxPoint x="93" y="-3" as="offset" />
          </mxGeometry>
        </mxCell>
        <mxCell id="hd1mkYOsox17n5HaAeX6-68" value="" style="endArrow=classic;html=1;" edge="1" parent="1" target="hd1mkYOsox17n5HaAeX6-44">
          <mxGeometry width="50" height="50" relative="1" as="geometry">
            <mxPoint x="535.0000000000002" y="400" as="sourcePoint" />
            <mxPoint x="615.0000000000002" y="400" as="targetPoint" />
          </mxGeometry>
        </mxCell>
        <mxCell id="hd1mkYOsox17n5HaAeX6-69" value="start()" style="edgeLabel;html=1;align=center;verticalAlign=middle;resizable=0;points=[];" vertex="1" connectable="0" parent="hd1mkYOsox17n5HaAeX6-68">
          <mxGeometry x="0.3613" y="1" relative="1" as="geometry">
            <mxPoint x="-165" as="offset" />
          </mxGeometry>
        </mxCell>
        <mxCell id="hd1mkYOsox17n5HaAeX6-70" value="loop" style="shape=umlFrame;whiteSpace=wrap;html=1;" vertex="1" parent="1">
          <mxGeometry x="1080" y="350" width="180" height="120" as="geometry" />
        </mxCell>
        <mxCell id="hd1mkYOsox17n5HaAeX6-71" value="" style="html=1;points=[];perimeter=orthogonalPerimeter;" vertex="1" parent="1">
          <mxGeometry x="1170" y="420" width="10" height="40" as="geometry" />
        </mxCell>
        <mxCell id="hd1mkYOsox17n5HaAeX6-72" value="epoll_wait()" style="edgeStyle=orthogonalEdgeStyle;html=1;align=left;spacingLeft=2;endArrow=block;rounded=0;entryX=1;entryY=0;exitX=1.11;exitY=0.079;exitDx=0;exitDy=0;exitPerimeter=0;" edge="1" target="hd1mkYOsox17n5HaAeX6-71" parent="1" source="hd1mkYOsox17n5HaAeX6-73">
          <mxGeometry x="-0.5322" y="10" relative="1" as="geometry">
            <mxPoint x="1179.97" y="390" as="sourcePoint" />
            <Array as="points">
              <mxPoint x="1171" y="390" />
              <mxPoint x="1210" y="390" />
              <mxPoint x="1210" y="420" />
            </Array>
            <mxPoint as="offset" />
          </mxGeometry>
        </mxCell>
        <mxCell id="hd1mkYOsox17n5HaAeX6-73" value="" style="html=1;points=[];perimeter=orthogonalPerimeter;" vertex="1" parent="1">
          <mxGeometry x="1160" y="390" width="10" height="70" as="geometry" />
        </mxCell>
        <mxCell id="hd1mkYOsox17n5HaAeX6-74" value="loop" style="shape=umlFrame;whiteSpace=wrap;html=1;" vertex="1" parent="1">
          <mxGeometry x="1292" y="390" width="110" height="130" as="geometry" />
        </mxCell>
        <mxCell id="hd1mkYOsox17n5HaAeX6-75" value="" style="html=1;points=[];perimeter=orthogonalPerimeter;" vertex="1" parent="1">
          <mxGeometry x="1312" y="460" width="10" height="40" as="geometry" />
        </mxCell>
        <mxCell id="hd1mkYOsox17n5HaAeX6-76" value="epoll_wait()" style="edgeStyle=orthogonalEdgeStyle;html=1;align=left;spacingLeft=2;endArrow=block;rounded=0;entryX=1;entryY=0;exitX=1.11;exitY=0.079;exitDx=0;exitDy=0;exitPerimeter=0;" edge="1" parent="1" source="hd1mkYOsox17n5HaAeX6-77" target="hd1mkYOsox17n5HaAeX6-75">
          <mxGeometry x="-0.5322" y="10" relative="1" as="geometry">
            <mxPoint x="1321.97" y="430" as="sourcePoint" />
            <Array as="points">
              <mxPoint x="1313" y="430" />
              <mxPoint x="1352" y="430" />
              <mxPoint x="1352" y="460" />
            </Array>
            <mxPoint as="offset" />
          </mxGeometry>
        </mxCell>
        <mxCell id="hd1mkYOsox17n5HaAeX6-77" value="" style="html=1;points=[];perimeter=orthogonalPerimeter;" vertex="1" parent="1">
          <mxGeometry x="1302" y="430" width="10" height="70" as="geometry" />
        </mxCell>
        <mxCell id="hd1mkYOsox17n5HaAeX6-79" value="client" style="shape=umlLifeline;perimeter=lifelinePerimeter;whiteSpace=wrap;html=1;container=1;collapsible=0;recursiveResize=0;outlineConnect=0;" vertex="1" parent="1">
          <mxGeometry y="520" width="100" height="630" as="geometry" />
        </mxCell>
        <mxCell id="hd1mkYOsox17n5HaAeX6-103" value="" style="html=1;points=[];perimeter=orthogonalPerimeter;" vertex="1" parent="hd1mkYOsox17n5HaAeX6-79">
          <mxGeometry x="45" y="300" width="10" height="80" as="geometry" />
        </mxCell>
        <mxCell id="hd1mkYOsox17n5HaAeX6-138" value="" style="html=1;points=[];perimeter=orthogonalPerimeter;" vertex="1" parent="hd1mkYOsox17n5HaAeX6-79">
          <mxGeometry x="45" y="500" width="10" height="80" as="geometry" />
        </mxCell>
        <mxCell id="hd1mkYOsox17n5HaAeX6-80" value="" style="endArrow=classic;html=1;" edge="1" parent="1" source="hd1mkYOsox17n5HaAeX6-79">
          <mxGeometry width="50" height="50" relative="1" as="geometry">
            <mxPoint x="350.0000000000002" y="560" as="sourcePoint" />
            <mxPoint x="1150" y="600" as="targetPoint" />
            <Array as="points">
              <mxPoint x="80" y="600" />
            </Array>
          </mxGeometry>
        </mxCell>
        <mxCell id="hd1mkYOsox17n5HaAeX6-83" value="connect" style="edgeLabel;html=1;align=center;verticalAlign=middle;resizable=0;points=[];" vertex="1" connectable="0" parent="hd1mkYOsox17n5HaAeX6-80">
          <mxGeometry x="-0.534" y="-2" relative="1" as="geometry">
            <mxPoint as="offset" />
          </mxGeometry>
        </mxCell>
        <mxCell id="hd1mkYOsox17n5HaAeX6-82" value="" style="html=1;points=[];perimeter=orthogonalPerimeter;" vertex="1" parent="1">
          <mxGeometry x="45.00000000000023" y="580" width="10" height="80" as="geometry" />
        </mxCell>
        <mxCell id="hd1mkYOsox17n5HaAeX6-87" style="edgeStyle=orthogonalEdgeStyle;rounded=0;orthogonalLoop=1;jettySize=auto;html=1;entryX=0.921;entryY=0.243;entryDx=0;entryDy=0;entryPerimeter=0;" edge="1" parent="1" source="hd1mkYOsox17n5HaAeX6-84" target="hd1mkYOsox17n5HaAeX6-86">
          <mxGeometry relative="1" as="geometry" />
        </mxCell>
        <mxCell id="hd1mkYOsox17n5HaAeX6-88" value="HandleEvent()" style="edgeLabel;html=1;align=center;verticalAlign=middle;resizable=0;points=[];" vertex="1" connectable="0" parent="hd1mkYOsox17n5HaAeX6-87">
          <mxGeometry x="0.1836" y="2" relative="1" as="geometry">
            <mxPoint as="offset" />
          </mxGeometry>
        </mxCell>
        <mxCell id="hd1mkYOsox17n5HaAeX6-84" value="" style="html=1;points=[];perimeter=orthogonalPerimeter;" vertex="1" parent="1">
          <mxGeometry x="1155" y="590" width="10" height="80" as="geometry" />
        </mxCell>
        <mxCell id="hd1mkYOsox17n5HaAeX6-92" style="edgeStyle=orthogonalEdgeStyle;rounded=0;orthogonalLoop=1;jettySize=auto;html=1;entryX=1.038;entryY=0.26;entryDx=0;entryDy=0;entryPerimeter=0;" edge="1" parent="1" source="hd1mkYOsox17n5HaAeX6-86" target="hd1mkYOsox17n5HaAeX6-90">
          <mxGeometry relative="1" as="geometry" />
        </mxCell>
        <mxCell id="hd1mkYOsox17n5HaAeX6-93" value="onAccent()" style="edgeLabel;html=1;align=center;verticalAlign=middle;resizable=0;points=[];" vertex="1" connectable="0" parent="hd1mkYOsox17n5HaAeX6-92">
          <mxGeometry x="0.1993" y="1" relative="1" as="geometry">
            <mxPoint as="offset" />
          </mxGeometry>
        </mxCell>
        <mxCell id="hd1mkYOsox17n5HaAeX6-86" value="" style="html=1;points=[];perimeter=orthogonalPerimeter;" vertex="1" parent="1">
          <mxGeometry x="795" y="610" width="10" height="80" as="geometry" />
        </mxCell>
        <mxCell id="hd1mkYOsox17n5HaAeX6-90" value="" style="html=1;points=[];perimeter=orthogonalPerimeter;" vertex="1" parent="1">
          <mxGeometry x="664.86" y="630" width="10" height="80" as="geometry" />
        </mxCell>
        <mxCell id="hd1mkYOsox17n5HaAeX6-94" value="TcpConnect" style="shape=umlLifeline;perimeter=lifelinePerimeter;whiteSpace=wrap;html=1;container=1;collapsible=0;recursiveResize=0;outlineConnect=0;" vertex="1" parent="1">
          <mxGeometry x="990" y="60" width="100" height="900" as="geometry" />
        </mxCell>
        <mxCell id="hd1mkYOsox17n5HaAeX6-101" style="edgeStyle=orthogonalEdgeStyle;rounded=0;orthogonalLoop=1;jettySize=auto;html=1;" edge="1" parent="1" target="hd1mkYOsox17n5HaAeX6-100">
          <mxGeometry relative="1" as="geometry">
            <mxPoint x="1046" y="760" as="sourcePoint" />
          </mxGeometry>
        </mxCell>
        <mxCell id="hd1mkYOsox17n5HaAeX6-102" value="EnableRead()" style="edgeLabel;html=1;align=center;verticalAlign=middle;resizable=0;points=[];" vertex="1" connectable="0" parent="hd1mkYOsox17n5HaAeX6-101">
          <mxGeometry x="-0.3162" relative="1" as="geometry">
            <mxPoint as="offset" />
          </mxGeometry>
        </mxCell>
        <mxCell id="hd1mkYOsox17n5HaAeX6-95" value="" style="html=1;points=[];perimeter=orthogonalPerimeter;" vertex="1" parent="1">
          <mxGeometry x="1035" y="640" width="10" height="150" as="geometry" />
        </mxCell>
        <mxCell id="hd1mkYOsox17n5HaAeX6-96" value="" style="endArrow=classic;html=1;exitX=1.038;exitY=0.855;exitDx=0;exitDy=0;exitPerimeter=0;" edge="1" parent="1" source="hd1mkYOsox17n5HaAeX6-90" target="hd1mkYOsox17n5HaAeX6-94">
          <mxGeometry width="50" height="50" relative="1" as="geometry">
            <mxPoint x="690" y="690" as="sourcePoint" />
            <mxPoint x="740" y="640" as="targetPoint" />
          </mxGeometry>
        </mxCell>
        <mxCell id="hd1mkYOsox17n5HaAeX6-97" value="Text" style="edgeLabel;html=1;align=center;verticalAlign=middle;resizable=0;points=[];" vertex="1" connectable="0" parent="hd1mkYOsox17n5HaAeX6-96">
          <mxGeometry x="0.1549" relative="1" as="geometry">
            <mxPoint as="offset" />
          </mxGeometry>
        </mxCell>
        <mxCell id="hd1mkYOsox17n5HaAeX6-98" value="TcpConnect()" style="edgeLabel;html=1;align=center;verticalAlign=middle;resizable=0;points=[];" vertex="1" connectable="0" parent="hd1mkYOsox17n5HaAeX6-96">
          <mxGeometry x="0.1701" y="1" relative="1" as="geometry">
            <mxPoint as="offset" />
          </mxGeometry>
        </mxCell>
        <mxCell id="hd1mkYOsox17n5HaAeX6-100" value="" style="html=1;points=[];perimeter=orthogonalPerimeter;" vertex="1" parent="1">
          <mxGeometry x="1305" y="720" width="10" height="80" as="geometry" />
        </mxCell>
        <mxCell id="hd1mkYOsox17n5HaAeX6-106" style="edgeStyle=orthogonalEdgeStyle;rounded=0;orthogonalLoop=1;jettySize=auto;html=1;" edge="1" parent="1" source="hd1mkYOsox17n5HaAeX6-103">
          <mxGeometry relative="1" as="geometry">
            <mxPoint x="1300" y="860" as="targetPoint" />
          </mxGeometry>
        </mxCell>
        <mxCell id="hd1mkYOsox17n5HaAeX6-108" value="write" style="edgeLabel;html=1;align=center;verticalAlign=middle;resizable=0;points=[];" vertex="1" connectable="0" parent="hd1mkYOsox17n5HaAeX6-106">
          <mxGeometry x="-0.2471" y="3" relative="1" as="geometry">
            <mxPoint x="2" y="3" as="offset" />
          </mxGeometry>
        </mxCell>
        <mxCell id="hd1mkYOsox17n5HaAeX6-107" value="" style="html=1;points=[];perimeter=orthogonalPerimeter;" vertex="1" parent="1">
          <mxGeometry x="1305" y="850" width="10" height="80" as="geometry" />
        </mxCell>
        <mxCell id="hd1mkYOsox17n5HaAeX6-111" value="" style="endArrow=classic;html=1;" edge="1" parent="1">
          <mxGeometry width="50" height="50" relative="1" as="geometry">
            <mxPoint x="1300" y="880" as="sourcePoint" />
            <mxPoint x="1050" y="880" as="targetPoint" />
          </mxGeometry>
        </mxCell>
        <mxCell id="hd1mkYOsox17n5HaAeX6-112" value="HandleEvent()" style="edgeLabel;html=1;align=center;verticalAlign=middle;resizable=0;points=[];" vertex="1" connectable="0" parent="hd1mkYOsox17n5HaAeX6-111">
          <mxGeometry x="-0.356" y="3" relative="1" as="geometry">
            <mxPoint as="offset" />
          </mxGeometry>
        </mxCell>
        <mxCell id="hd1mkYOsox17n5HaAeX6-114" value="" style="html=1;points=[];perimeter=orthogonalPerimeter;" vertex="1" parent="1">
          <mxGeometry x="1035" y="870" width="10" height="80" as="geometry" />
        </mxCell>
        <mxCell id="hd1mkYOsox17n5HaAeX6-115" value="" style="html=1;points=[];perimeter=orthogonalPerimeter;" vertex="1" parent="1">
          <mxGeometry x="1045" y="910" width="10" height="40" as="geometry" />
        </mxCell>
        <mxCell id="hd1mkYOsox17n5HaAeX6-116" value="HandleReadEvent()" style="edgeStyle=orthogonalEdgeStyle;html=1;align=left;spacingLeft=2;endArrow=block;rounded=0;entryX=1;entryY=0;" edge="1" target="hd1mkYOsox17n5HaAeX6-115" parent="1">
          <mxGeometry relative="1" as="geometry">
            <mxPoint x="1050" y="890" as="sourcePoint" />
            <Array as="points">
              <mxPoint x="1080" y="890" />
            </Array>
          </mxGeometry>
        </mxCell>
        <mxCell id="hd1mkYOsox17n5HaAeX6-117" value="" style="html=1;points=[];perimeter=orthogonalPerimeter;" vertex="1" parent="1">
          <mxGeometry x="525" y="900" width="10" height="170" as="geometry" />
        </mxCell>
        <mxCell id="hd1mkYOsox17n5HaAeX6-119" value="" style="endArrow=classic;html=1;" edge="1" parent="1" target="hd1mkYOsox17n5HaAeX6-22">
          <mxGeometry width="50" height="50" relative="1" as="geometry">
            <mxPoint x="1035" y="939.58" as="sourcePoint" />
            <mxPoint x="785" y="939.58" as="targetPoint" />
          </mxGeometry>
        </mxCell>
        <mxCell id="hd1mkYOsox17n5HaAeX6-121" value="OnMessage()" style="edgeLabel;html=1;align=center;verticalAlign=middle;resizable=0;points=[];" vertex="1" connectable="0" parent="hd1mkYOsox17n5HaAeX6-119">
          <mxGeometry x="-0.4011" y="4" relative="1" as="geometry">
            <mxPoint x="-83" y="-4" as="offset" />
          </mxGeometry>
        </mxCell>
        <mxCell id="hd1mkYOsox17n5HaAeX6-123" value="TrpcServerDispatcher" style="shape=umlLifeline;perimeter=lifelinePerimeter;whiteSpace=wrap;html=1;container=1;collapsible=0;recursiveResize=0;outlineConnect=0;" vertex="1" parent="1">
          <mxGeometry x="1430" y="60" width="130" height="1110" as="geometry" />
        </mxCell>
        <mxCell id="hd1mkYOsox17n5HaAeX6-131" style="edgeStyle=orthogonalEdgeStyle;rounded=0;orthogonalLoop=1;jettySize=auto;html=1;" edge="1" parent="1" source="hd1mkYOsox17n5HaAeX6-124">
          <mxGeometry relative="1" as="geometry">
            <mxPoint x="1630" y="990" as="targetPoint" />
          </mxGeometry>
        </mxCell>
        <mxCell id="hd1mkYOsox17n5HaAeX6-133" value="DispatchAncientService" style="edgeLabel;html=1;align=center;verticalAlign=middle;resizable=0;points=[];" vertex="1" connectable="0" parent="hd1mkYOsox17n5HaAeX6-131">
          <mxGeometry x="-0.1487" y="2" relative="1" as="geometry">
            <mxPoint x="15" y="-18" as="offset" />
          </mxGeometry>
        </mxCell>
        <mxCell id="hd1mkYOsox17n5HaAeX6-124" value="" style="html=1;points=[];perimeter=orthogonalPerimeter;" vertex="1" parent="1">
          <mxGeometry x="1490" y="950" width="10" height="80" as="geometry" />
        </mxCell>
        <mxCell id="hd1mkYOsox17n5HaAeX6-125" value="" style="endArrow=classic;html=1;exitX=1.038;exitY=0.855;exitDx=0;exitDy=0;exitPerimeter=0;" edge="1" parent="1" target="hd1mkYOsox17n5HaAeX6-123">
          <mxGeometry width="50" height="50" relative="1" as="geometry">
            <mxPoint x="535.0000000000002" y="970.0000000000001" as="sourcePoint" />
            <mxPoint x="899.26" y="970.0000000000001" as="targetPoint" />
          </mxGeometry>
        </mxCell>
        <mxCell id="hd1mkYOsox17n5HaAeX6-126" value="Text" style="edgeLabel;html=1;align=center;verticalAlign=middle;resizable=0;points=[];" vertex="1" connectable="0" parent="hd1mkYOsox17n5HaAeX6-125">
          <mxGeometry x="0.1549" relative="1" as="geometry">
            <mxPoint as="offset" />
          </mxGeometry>
        </mxCell>
        <mxCell id="hd1mkYOsox17n5HaAeX6-127" value="Dispatch();" style="edgeLabel;html=1;align=center;verticalAlign=middle;resizable=0;points=[];" vertex="1" connectable="0" parent="hd1mkYOsox17n5HaAeX6-125">
          <mxGeometry x="0.1701" y="1" relative="1" as="geometry">
            <mxPoint as="offset" />
          </mxGeometry>
        </mxCell>
        <mxCell id="hd1mkYOsox17n5HaAeX6-129" value="services" style="shape=umlLifeline;perimeter=lifelinePerimeter;whiteSpace=wrap;html=1;container=1;collapsible=0;recursiveResize=0;outlineConnect=0;" vertex="1" parent="1">
          <mxGeometry x="1590" y="60" width="100" height="1190" as="geometry" />
        </mxCell>
        <mxCell id="hd1mkYOsox17n5HaAeX6-130" value="" style="html=1;points=[];perimeter=orthogonalPerimeter;" vertex="1" parent="1">
          <mxGeometry x="1635" y="980" width="10" height="80" as="geometry" />
        </mxCell>
        <mxCell id="hd1mkYOsox17n5HaAeX6-135" value="" style="endArrow=classic;html=1;" edge="1" parent="1">
          <mxGeometry width="50" height="50" relative="1" as="geometry">
            <mxPoint x="1635.33" y="1050" as="sourcePoint" />
            <mxPoint x="530" y="1050" as="targetPoint" />
          </mxGeometry>
        </mxCell>
        <mxCell id="hd1mkYOsox17n5HaAeX6-136" value="send()" style="edgeLabel;html=1;align=center;verticalAlign=middle;resizable=0;points=[];" vertex="1" connectable="0" parent="hd1mkYOsox17n5HaAeX6-135">
          <mxGeometry x="-0.4011" y="4" relative="1" as="geometry">
            <mxPoint x="-214" y="-4" as="offset" />
          </mxGeometry>
        </mxCell>
        <mxCell id="hd1mkYOsox17n5HaAeX6-139" value="" style="endArrow=classic;html=1;exitX=-0.217;exitY=1;exitDx=0;exitDy=0;exitPerimeter=0;entryX=1.367;entryY=0.625;entryDx=0;entryDy=0;entryPerimeter=0;" edge="1" parent="1" source="hd1mkYOsox17n5HaAeX6-117" target="hd1mkYOsox17n5HaAeX6-138">
          <mxGeometry width="50" height="50" relative="1" as="geometry">
            <mxPoint x="400" y="900" as="sourcePoint" />
            <mxPoint x="450" y="850" as="targetPoint" />
          </mxGeometry>
        </mxCell>
        <mxCell id="hd1mkYOsox17n5HaAeX6-140" value="write" style="edgeLabel;html=1;align=center;verticalAlign=middle;resizable=0;points=[];" vertex="1" connectable="0" parent="hd1mkYOsox17n5HaAeX6-139">
          <mxGeometry x="0.307" y="-1" relative="1" as="geometry">
            <mxPoint as="offset" />
          </mxGeometry>
        </mxCell>
      </root>
    </mxGraphModel>
  </diagram>
</mxfile>
